PathFileType	4	(X/Y/Z)	4_coords_data.trc
DataRate	CameraRate	NumFrames	NumMarkers	Units	OrigDataRate	OrigDataStartFrame	OrigNumFrames
30.0	30.0	5	21	m	30.0	31	50
Frame#	Time	THUMB_TIP	THUMB_IP	THUMB_MCP	THUMB_CMC	INDEX_TIP	INDEX_DIP	INDEX_PIP	INDEX_MCP	MIDDLE_TIP	MIDDLE_DIP	MIDDLE_PIP	MIDDLE_MCP	RING_TIP	RING_DIP	RING_PIP	RING_MCP	PINKY_TIP	PINKY_DIP	PINKY_PIP	PINKY_MCP	WRIST
X1	Y1	Z1	X2	Y2	Z2	X3	Y3	Z3	X4	Y4	Z4	X5	Y5	Z5	X6	Y6	Z6	X7	Y7	Z7	X8	Y8	Z8	X9	Y9	Z9	X10	Y10	Z10	X11	Y11	Z11	X12	Y12	Z12	X13	Y13	Z13	X14	Y14	Z14	X15	Y15	Z15	X16	Y16	Z16	X17	Y17	Z17	X18	Y18	Z18	X19	Y19	Z19	X20	Y20	Z20	X21	Y21	Z21
29	0.9999999999999956	0.5210299599433778	-0.015601704103567648	-0.15631304755237907	0.5074269892483855	-0.020096204423141084	-0.13834756244485874	0.48452848497711587	-0.02892984433738721	-0.11920480120192173	0.4785420950872896	-0.028162819049733834	-0.07500678305296976	0.5372306914769054	-0.019883033887165835	-0.11560390996023684	0.5416525154613607	-0.004618269856152213	-0.12428921086049166	0.5336514968588557	0.017762693984655353	-0.1324798147380351	0.49363712392122516	0.019612264985114702	-0.11802072972125471	0.535543285081311	-0.01979915083283612	-0.10180121978605161	0.5459749483240224	-0.005637457223278131	-0.10611710163101284	0.5443053706397669	0.0228329356848197	-0.11212199863385774	0.5027408500581908	0.030902704174055606	-0.09785955191690637	0.535217616006971	-0.014090778334876375	-0.08414565754410791	0.5470871177076317	-0.0006915041202356642	-0.0862844375465564	0.549793291100085	0.023852016109416674	-0.08952051840256658	0.5124837567199296	0.033878361161389425	-0.07759609459112854	0.5329820933665002	-0.012642978193803334	-0.07170007627651287	0.5460861647338496	-0.0017786792783160976	-0.0698972111472394	0.5484157511021869	0.01876206322946894	-0.06622802273815837	0.5152582702510994	0.028331895858788814	-0.055745503095602444	0.4622830810018609	-0.023011742144276925	-0.051989820119430985
30	1.0333333333333288	0.5239728046025567	-0.018011186716831884	-0.15465945991052676	0.5095008829391876	-0.021986473041431864	-0.13725944318620287	0.48577410732487447	-0.030032799332512905	-0.11879009690200826	0.47879611326145144	-0.028445226704485793	-0.07475968454870885	0.5478741586301983	-0.017045733478093128	-0.1211313596082022	0.547408795843953	-0.0005160964415503733	-0.12851746392085162	0.5347093891200102	0.020459774319972368	-0.13406252908329758	0.4953240301438958	0.018350193525967007	-0.11800079626282745	0.5463344901986072	-0.018087560765206123	-0.1061403285559166	0.5533471876488244	-0.0017928437076094594	-0.10978783050719576	0.5458896422067419	0.02614431294546815	-0.11343609641316815	0.5041472410001107	0.029762214132783016	-0.09792382212783335	0.5463508124559057	-0.012662790721997608	-0.08724016974565157	0.554821679224068	0.0031722923432464523	-0.08881958752219649	0.5517863413846352	0.027829696596601727	-0.09054559988806488	0.5136954068316728	0.03265624884070717	-0.0778765063010376	0.5422594760024877	-0.011871311607610124	-0.0740617558703166	0.5526269376752381	0.0013846396404082473	-0.07093198032337905	0.5508243359355067	0.02175718079783051	-0.06618622298054616	0.5165472605713668	0.026929248194667688	-0.05622553654216972	0.4622830810018609	-0.023011742144276925	-0.051989820119430985
31	1.0666666666666622	0.5267260510012303	-0.020633318626616992	-0.1529873904548772	0.5114851442289262	-0.024023511600183456	-0.13612852476468557	0.4869766718223624	-0.03120942522970327	-0.11833758815061768	0.4790394281415876	-0.028727585027423008	-0.07451144718472441	0.5575855349038908	-0.01217144776105239	-0.1272577370172679	0.5522830862100058	0.004259623280945535	-0.13272618673007797	0.5355513221129226	0.022833168671736015	-0.13538726072675722	0.4971621222878039	0.016961172788279133	-0.11791084532966356	0.5576025765248008	-0.014504824708823194	-0.11079145293979148	0.5603207741438276	0.003213328534426685	-0.11337572215034819	0.5472542697585662	0.029243235810418988	-0.11443399449393082	0.5057430081726957	0.028449198435165246	-0.09793149204138929	0.5576917133927347	-0.009201389778486613	-0.09033124759643524	0.5619901874389112	0.008290112879163591	-0.09108653274243417	0.5533645670729873	0.03165185937829118	-0.09117286242132061	0.5151083663040121	0.031211884625262698	-0.07809653423101542	0.5521081299700353	-0.00957365851314973	-0.07581734657741712	0.5588546711399871	0.005517079730863683	-0.07137282168798126	0.5528612538493578	0.024840583730702637	-0.06576094487637979	0.5179636042021526	0.025305035193873393	-0.05666029737527961	0.4622830810018609	-0.023011742144276925	-0.051989820119430985
32	1.0999999999999952	0.529220685206189	-0.023394901075875163	-0.15137376347248904	0.5133411176345128	-0.026149799927801975	-0.13499542820750493	0.48813667050847886	-0.03242308430698593	-0.11784311792087465	0.4792813941770234	-0.02900519119680056	-0.07425651346743156	0.5654206490541357	-0.006000191799388044	-0.13323939343226016	0.5560373024119577	0.009137513692768495	-0.13652613623105975	0.5362781993475721	0.02467999943772481	-0.1363889649555695	0.49911964427808486	0.015474249001434792	-0.11773066819373651	0.5684101871536202	-0.00904943234000466	-0.11532584323197786	0.5663253647517101	0.008901340971978033	-0.11651884493117959	0.5484462855786998	0.03187071006011433	-0.11505045751016268	0.5074977233148034	0.026977815841637387	-0.09786259098500638	0.5682337363857342	-0.003978756636836112	-0.09307933116540917	0.5679559486375222	0.014045098385276122	-0.09282737063510382	0.5545323860118754	0.034969656474206245	-0.09136080518537859	0.5166758585903748	0.029574446090539608	-0.07822703685709026	0.5615626922544902	-0.0057633952511817466	-0.0766304044391033	0.5641849767184288	0.010218931949913412	-0.07109065341335091	0.5543708395461516	0.027726698862485022	-0.06492844372049011	0.5194385006922303	0.02351584116070282	-0.05699851114762644	0.4622830810018608	-0.023011742144276925	-0.051989820119430985
33	1.1333333333333284	0.5313418793512	-0.026181474908491986	-0.1499080977634235	0.5149739193653715	-0.028277235913365062	-0.13391754831342734	0.4891807556232569	-0.033614581527266374	-0.11733305417069789	0.4795121549027026	-0.029282651647346225	-0.07400128125956545	0.5711947367463724	0.0003586200579795973	-0.13842989201140693	0.558802020026762	0.013510912344599668	-0.13962896661909446	0.5370384221592335	0.02582202782378662	-0.1370228053580383	0.5011290723349698	0.01392668682022713	-0.11746122179208723	0.577879357474724	-0.002262957081824113	-0.11928963503698986	0.5711534318529972	0.014549164182365293	-0.11895125192690709	0.5495797975423009	0.03379180952713823	-0.11524875914992039	0.5093596555963487	0.02537334950753045	-0.09770972742790901	0.5773127375801121	0.002234284087070715	-0.09521739720944516	0.5725632110595302	0.019575308313322437	-0.09390176936888989	0.5554468142605251	0.03744568770427359	-0.0910984713036675	0.5183528815005888	0.02777303558597577	-0.07824542546232272	0.5697414420438542	-0.0010526074734072965	-0.07641620016736322	0.5683223219080701	0.014801271399117133	-0.07012012021746328	0.5553802117963174	0.030054838283039564	-0.06374497298991044	0.5209301032450575	0.021594984856478594	-0.05722543682485065	0.4622830810018609	-0.023011742144276925	-0.05198982011943093
